<mxfile host="app.diagrams.net" modified="2021-09-25T12:49:53.186Z" agent="5.0 (Windows)" etag="z3PV7rlGDaerpVLy6Y27" version="14.8.4" type="github">
  <diagram id="t6vJwi-uTdX1B7rISx5m" name="Page-1">
    <mxGraphModel dx="981" dy="538" grid="1" gridSize="10" guides="1" tooltips="1" connect="1" arrows="1" fold="1" page="1" pageScale="1" pageWidth="827" pageHeight="1169" math="0" shadow="0">
      <root>
        <mxCell id="0" />
        <mxCell id="1" parent="0" />
        <mxCell id="IKiTzrVtiVGSlTAkvWHX-7" value="" style="edgeStyle=orthogonalEdgeStyle;rounded=0;orthogonalLoop=1;jettySize=auto;html=1;" edge="1" parent="1" source="IKiTzrVtiVGSlTAkvWHX-1" target="IKiTzrVtiVGSlTAkvWHX-3">
          <mxGeometry relative="1" as="geometry" />
        </mxCell>
        <mxCell id="IKiTzrVtiVGSlTAkvWHX-17" value="Refresh" style="edgeLabel;html=1;align=center;verticalAlign=middle;resizable=0;points=[];" vertex="1" connectable="0" parent="IKiTzrVtiVGSlTAkvWHX-7">
          <mxGeometry relative="1" as="geometry">
            <mxPoint as="offset" />
          </mxGeometry>
        </mxCell>
        <mxCell id="IKiTzrVtiVGSlTAkvWHX-9" value="" style="edgeStyle=orthogonalEdgeStyle;rounded=0;orthogonalLoop=1;jettySize=auto;html=1;exitX=0.75;exitY=1;exitDx=0;exitDy=0;entryX=0.75;entryY=0;entryDx=0;entryDy=0;" edge="1" parent="1" source="IKiTzrVtiVGSlTAkvWHX-1" target="IKiTzrVtiVGSlTAkvWHX-2">
          <mxGeometry relative="1" as="geometry" />
        </mxCell>
        <mxCell id="IKiTzrVtiVGSlTAkvWHX-14" value="" style="edgeStyle=orthogonalEdgeStyle;rounded=0;orthogonalLoop=1;jettySize=auto;html=1;exitX=0.361;exitY=1;exitDx=0;exitDy=0;exitPerimeter=0;entryX=0.194;entryY=-0.042;entryDx=0;entryDy=0;entryPerimeter=0;endArrow=none;endFill=0;startArrow=classic;startFill=1;" edge="1" parent="1" source="IKiTzrVtiVGSlTAkvWHX-1" target="IKiTzrVtiVGSlTAkvWHX-10">
          <mxGeometry relative="1" as="geometry">
            <mxPoint x="273" y="541" as="targetPoint" />
          </mxGeometry>
        </mxCell>
        <mxCell id="IKiTzrVtiVGSlTAkvWHX-15" value="" style="edgeStyle=orthogonalEdgeStyle;rounded=0;orthogonalLoop=1;jettySize=auto;html=1;exitX=0.857;exitY=1.01;exitDx=0;exitDy=0;exitPerimeter=0;entryX=0.688;entryY=-0.028;entryDx=0;entryDy=0;entryPerimeter=0;" edge="1" parent="1" source="IKiTzrVtiVGSlTAkvWHX-1" target="IKiTzrVtiVGSlTAkvWHX-10">
          <mxGeometry relative="1" as="geometry">
            <mxPoint x="333" y="539" as="targetPoint" />
          </mxGeometry>
        </mxCell>
        <mxCell id="IKiTzrVtiVGSlTAkvWHX-1" value="Master Controller" style="rounded=0;whiteSpace=wrap;html=1;" vertex="1" parent="1">
          <mxGeometry x="230" y="320" width="120" height="60" as="geometry" />
        </mxCell>
        <mxCell id="IKiTzrVtiVGSlTAkvWHX-5" value="" style="edgeStyle=orthogonalEdgeStyle;rounded=0;orthogonalLoop=1;jettySize=auto;html=1;exitX=1;exitY=0.25;exitDx=0;exitDy=0;entryX=0;entryY=0.25;entryDx=0;entryDy=0;" edge="1" parent="1" source="IKiTzrVtiVGSlTAkvWHX-2" target="IKiTzrVtiVGSlTAkvWHX-4">
          <mxGeometry relative="1" as="geometry" />
        </mxCell>
        <mxCell id="IKiTzrVtiVGSlTAkvWHX-18" value="Refresh" style="edgeLabel;html=1;align=center;verticalAlign=middle;resizable=0;points=[];" vertex="1" connectable="0" parent="IKiTzrVtiVGSlTAkvWHX-5">
          <mxGeometry relative="1" as="geometry">
            <mxPoint as="offset" />
          </mxGeometry>
        </mxCell>
        <mxCell id="IKiTzrVtiVGSlTAkvWHX-8" value="" style="edgeStyle=orthogonalEdgeStyle;rounded=0;orthogonalLoop=1;jettySize=auto;html=1;exitX=0.25;exitY=0;exitDx=0;exitDy=0;entryX=0.25;entryY=1;entryDx=0;entryDy=0;" edge="1" parent="1" source="IKiTzrVtiVGSlTAkvWHX-2" target="IKiTzrVtiVGSlTAkvWHX-1">
          <mxGeometry relative="1" as="geometry" />
        </mxCell>
        <mxCell id="IKiTzrVtiVGSlTAkvWHX-2" value="Client Controller" style="whiteSpace=wrap;html=1;" vertex="1" parent="1">
          <mxGeometry x="230" y="460" width="120" height="60" as="geometry" />
        </mxCell>
        <mxCell id="IKiTzrVtiVGSlTAkvWHX-3" value="Master View" style="rounded=0;whiteSpace=wrap;html=1;" vertex="1" parent="1">
          <mxGeometry x="440" y="320" width="120" height="60" as="geometry" />
        </mxCell>
        <mxCell id="IKiTzrVtiVGSlTAkvWHX-6" value="" style="edgeStyle=orthogonalEdgeStyle;rounded=0;orthogonalLoop=1;jettySize=auto;html=1;entryX=1;entryY=0.75;entryDx=0;entryDy=0;exitX=0;exitY=0.75;exitDx=0;exitDy=0;" edge="1" parent="1" source="IKiTzrVtiVGSlTAkvWHX-4" target="IKiTzrVtiVGSlTAkvWHX-2">
          <mxGeometry relative="1" as="geometry" />
        </mxCell>
        <mxCell id="IKiTzrVtiVGSlTAkvWHX-20" value="Gather" style="edgeLabel;html=1;align=center;verticalAlign=middle;resizable=0;points=[];" vertex="1" connectable="0" parent="IKiTzrVtiVGSlTAkvWHX-6">
          <mxGeometry relative="1" as="geometry">
            <mxPoint as="offset" />
          </mxGeometry>
        </mxCell>
        <mxCell id="IKiTzrVtiVGSlTAkvWHX-4" value="Client View" style="rounded=0;whiteSpace=wrap;html=1;" vertex="1" parent="1">
          <mxGeometry x="440" y="460" width="120" height="60" as="geometry" />
        </mxCell>
        <mxCell id="IKiTzrVtiVGSlTAkvWHX-10" value="Client Controller" style="whiteSpace=wrap;html=1;" vertex="1" parent="1">
          <mxGeometry x="250" y="560" width="120" height="60" as="geometry" />
        </mxCell>
        <mxCell id="IKiTzrVtiVGSlTAkvWHX-11" value="" style="edgeStyle=orthogonalEdgeStyle;rounded=0;orthogonalLoop=1;jettySize=auto;html=1;exitX=1;exitY=0.25;exitDx=0;exitDy=0;entryX=0;entryY=0.25;entryDx=0;entryDy=0;" edge="1" source="IKiTzrVtiVGSlTAkvWHX-10" target="IKiTzrVtiVGSlTAkvWHX-13" parent="1">
          <mxGeometry relative="1" as="geometry">
            <Array as="points">
              <mxPoint x="400" y="575" />
              <mxPoint x="400" y="575" />
            </Array>
          </mxGeometry>
        </mxCell>
        <mxCell id="IKiTzrVtiVGSlTAkvWHX-19" value="Refresh" style="edgeLabel;html=1;align=center;verticalAlign=middle;resizable=0;points=[];" vertex="1" connectable="0" parent="IKiTzrVtiVGSlTAkvWHX-11">
          <mxGeometry relative="1" as="geometry">
            <mxPoint as="offset" />
          </mxGeometry>
        </mxCell>
        <mxCell id="IKiTzrVtiVGSlTAkvWHX-12" value="" style="edgeStyle=orthogonalEdgeStyle;rounded=0;orthogonalLoop=1;jettySize=auto;html=1;entryX=1;entryY=0.75;entryDx=0;entryDy=0;exitX=0;exitY=0.75;exitDx=0;exitDy=0;" edge="1" source="IKiTzrVtiVGSlTAkvWHX-13" target="IKiTzrVtiVGSlTAkvWHX-10" parent="1">
          <mxGeometry relative="1" as="geometry" />
        </mxCell>
        <mxCell id="IKiTzrVtiVGSlTAkvWHX-21" value="Gather" style="edgeLabel;html=1;align=center;verticalAlign=middle;resizable=0;points=[];" vertex="1" connectable="0" parent="IKiTzrVtiVGSlTAkvWHX-12">
          <mxGeometry relative="1" as="geometry">
            <mxPoint as="offset" />
          </mxGeometry>
        </mxCell>
        <mxCell id="IKiTzrVtiVGSlTAkvWHX-13" value="Client View" style="rounded=0;whiteSpace=wrap;html=1;" vertex="1" parent="1">
          <mxGeometry x="440" y="560" width="120" height="60" as="geometry" />
        </mxCell>
        <mxCell id="IKiTzrVtiVGSlTAkvWHX-22" value="" style="endArrow=none;html=1;" edge="1" parent="1">
          <mxGeometry width="50" height="50" relative="1" as="geometry">
            <mxPoint x="220" y="439.65999999999997" as="sourcePoint" />
            <mxPoint x="290" y="439.65999999999997" as="targetPoint" />
          </mxGeometry>
        </mxCell>
        <mxCell id="IKiTzrVtiVGSlTAkvWHX-23" value="&lt;font style=&quot;font-size: 11px&quot;&gt;Send Player position&lt;/font&gt;" style="text;html=1;align=center;verticalAlign=middle;resizable=0;points=[];autosize=1;strokeColor=none;" vertex="1" parent="1">
          <mxGeometry x="110" y="430" width="110" height="20" as="geometry" />
        </mxCell>
        <mxCell id="IKiTzrVtiVGSlTAkvWHX-24" value="" style="endArrow=none;html=1;" edge="1" parent="1">
          <mxGeometry width="50" height="50" relative="1" as="geometry">
            <mxPoint x="311" y="399.71" as="sourcePoint" />
            <mxPoint x="381" y="399.71" as="targetPoint" />
          </mxGeometry>
        </mxCell>
        <mxCell id="IKiTzrVtiVGSlTAkvWHX-25" value="&lt;div style=&quot;font-size: 11px&quot; align=&quot;center&quot;&gt;Send updated game state&lt;br&gt;&lt;/div&gt;" style="text;html=1;align=center;verticalAlign=middle;resizable=0;points=[];autosize=1;strokeColor=none;" vertex="1" parent="1">
          <mxGeometry x="376" y="390" width="140" height="20" as="geometry" />
        </mxCell>
      </root>
    </mxGraphModel>
  </diagram>
</mxfile>
